<svg xmlns="http://www.w3.org/2000/svg" xmlns:xlink="http://www.w3.org/1999/xlink" width="500" height="500" version="1.1" viewBox="0 0 500 500" xml:space="preserve"><desc>Created with Fabric.js 4.6.0</desc><g id="1Mo9ycloEUvVP0JB8DyZ9"><path style="stroke:#7e1035;stroke-width:0;stroke-dasharray:none;stroke-linecap:butt;stroke-dashoffset:0;stroke-linejoin:miter;stroke-miterlimit:4;fill:#ced7d7;fill-rule:nonzero;opacity:1" stroke-linecap="round" d="M 65.10417 0 L 86.80556 37.58791 L 65.10417 75.17582 L 21.701389999999996 75.17582 L -3.552713678800501e-15 37.58791 L 21.701389999999996 0 z" transform="matrix(3.61 0 0 2.61 258.25 239.58) translate(-43.4, -37.59)" vector-effect="non-scaling-stroke"/></g><g id="M4HZoQM8t7EYBoeVahopl"><path style="stroke:#7e1035;stroke-width:0;stroke-dasharray:none;stroke-linecap:butt;stroke-dashoffset:0;stroke-linejoin:miter;stroke-miterlimit:4;fill:#8a8f8f;fill-rule:nonzero;opacity:1" stroke-linecap="round" d="M 65.10417 0 L 86.80556 37.58791 L 65.10417 75.17582 L 21.701389999999996 75.17582 L -3.552713678800501e-15 37.58791 L 21.701389999999996 0 z" transform="matrix(2.29 0 0 2.19 256.73 255.2) translate(-43.4, -37.59)" vector-effect="non-scaling-stroke"/></g><g id="qnYFbKZrc0CwawlyXdK7g"><path style="stroke:#819ec3;stroke-width:0;stroke-dasharray:none;stroke-linecap:butt;stroke-dashoffset:0;stroke-linejoin:miter;stroke-miterlimit:4;fill:#ced7d7;fill-rule:nonzero;opacity:1" stroke-linecap="round" d="M -43.40278 -28.43185 C -43.40278 -36.70006 -41.74729 -43.40278 -39.70514 -43.40278 L 39.70514 -43.40278 L 39.70514 -43.40278 C 41.74729 -43.40278 43.40278 -36.70007 43.40278 -28.43185 L 43.40278 28.43185 L 43.40278 28.43185 C 43.40278 36.70006 41.74729 43.40278 39.70514 43.40278 L -39.70514 43.40278 L -39.70514 43.40278 C -41.74729 43.40278 -43.40278 36.70007 -43.40278 28.43185 z" transform="matrix(4.98 0 0 1.23 241.75 284.29) translate(0, 0)" vector-effect="non-scaling-stroke"/></g><g id="JuNaxuZzynCzeiAsT6qZN"><path style="stroke:#819ec3;stroke-width:0;stroke-dasharray:none;stroke-linecap:butt;stroke-dashoffset:0;stroke-linejoin:miter;stroke-miterlimit:4;fill:#8a8f8f;fill-rule:nonzero;opacity:1" stroke-linecap="round" d="M -43.40278 -23.59808 C -43.40278 -34.53591 -41.43984 -43.402770000000004 -39.01844 -43.402770000000004 L 39.018429999999995 -43.402770000000004 L 39.018429999999995 -43.402770000000004 C 41.43984 -43.402770000000004 43.40277 -34.53591 43.40277 -23.598080000000003 L 43.40277 23.59809 L 43.40277 23.59809 C 43.40277 34.53592 41.43982999999999 43.40278 39.018429999999995 43.40278 L -39.01844 43.40278 L -39.01844 43.40278 C -41.43985 43.40278 -43.40278 34.53592 -43.40278 23.59809 z" transform="matrix(4.2 0 0 0.93 238.72 279.94) translate(0, 0)" vector-effect="non-scaling-stroke"/></g><g id="HC4C1y-U58MxW6Ba9OaES"><path style="stroke:#e1c704;stroke-width:0;stroke-dasharray:none;stroke-linecap:butt;stroke-dashoffset:0;stroke-linejoin:miter;stroke-miterlimit:4;fill:#ced7d7;fill-rule:nonzero;opacity:1" stroke-linecap="round" d="M 43.40277777777778 0 C 67.36111111111111 0 86.80555555555556 19.444444444444443 86.80555555555556 43.40277777777778 C 86.80555555555556 67.36111111111111 67.36111111111111 86.80555555555556 43.40277777777778 86.80555555555556 C 19.444444444444443 86.80555555555556 0 67.36111111111111 0 43.40277777777778 C 0 19.444444444444443 19.444444444444443 0 43.40277777777778 0 Z" transform="matrix(1 0 0 1 144.97 344.62) translate(-43.4, -43.4)" vector-effect="non-scaling-stroke"/></g><g id="RQVd1f2CS9Mbkqtg9thKI"><path style="stroke:#e1c704;stroke-width:0;stroke-dasharray:none;stroke-linecap:butt;stroke-dashoffset:0;stroke-linejoin:miter;stroke-miterlimit:4;fill:#ced7d7;fill-rule:nonzero;opacity:1" stroke-linecap="round" d="M 43.40277777777778 0 C 67.36111111111111 0 86.80555555555556 19.444444444444443 86.80555555555556 43.40277777777778 C 86.80555555555556 67.36111111111111 67.36111111111111 86.80555555555556 43.40277777777778 86.80555555555556 C 19.444444444444443 86.80555555555556 0 67.36111111111111 0 43.40277777777778 C 0 19.444444444444443 19.444444444444443 0 43.40277777777778 0 Z" transform="matrix(1 0 0 1 342.47 344.62) translate(-43.4, -43.4)" vector-effect="non-scaling-stroke"/></g></svg>